<svg width="18" height="18" viewBox="0 0 18 18" fill="none" xmlns="http://www.w3.org/2000/svg">
<g clip-path="url(#clip0_23_2)">
<path d="M8.80313 0.0668212C8.62032 0.179321 8.60977 0.253149 8.62032 1.19182L8.63086 2.04612L8.74688 2.14807C8.90508 2.2887 9.09493 2.2887 9.25313 2.14807L9.36914 2.04612L9.37969 1.18127C9.39024 0.22854 9.37969 0.158227 9.17578 0.0527587C9.03868 -0.0175538 8.93672 -0.0140382 8.80313 0.0668212Z" fill="black"/>
<path d="M2.65077 2.65078C2.51718 2.78437 2.49608 2.92499 2.58046 3.08671C2.64022 3.19921 3.67733 4.22929 3.78632 4.28554C3.93397 4.35937 4.07811 4.33124 4.20468 4.20468C4.33827 4.07109 4.35936 3.93046 4.27499 3.76874C4.21522 3.65624 3.17811 2.62617 3.06913 2.56992C2.92147 2.49609 2.77733 2.52421 2.65077 2.65078Z" fill="black"/>
<path d="M14.9238 2.56992C14.8148 2.62968 13.7812 3.66328 13.725 3.76874C13.6406 3.93046 13.6617 4.07109 13.7953 4.20468C13.9219 4.33124 14.066 4.35937 14.2137 4.28554C14.3226 4.22929 15.3598 3.19921 15.4195 3.08671C15.5039 2.92499 15.4828 2.78437 15.3492 2.65078C15.2226 2.52421 15.0644 2.49609 14.9238 2.56992Z" fill="black"/>
<path d="M8.29685 2.99181C7.35114 3.11485 6.49685 3.43126 5.69528 3.96212C5.15036 4.32423 4.44372 5.02384 4.08161 5.56876C2.73161 7.59727 2.7281 10.1848 4.07106 12.1817C5.72692 14.6426 8.93317 15.5109 11.584 14.2207C13.9183 13.0852 15.2543 10.5609 14.8711 8.01212C14.734 7.11915 14.3718 6.2086 13.8586 5.48438C13.5035 4.98165 12.7968 4.28907 12.3047 3.96212C11.2746 3.28009 10.1672 2.94962 8.96481 2.95665C8.72224 2.96017 8.42341 2.97423 8.29685 2.99181ZM10.0195 3.81446C11.5031 4.14142 12.7371 5.03438 13.4754 6.31056C13.7636 6.80626 13.95 7.30196 14.0871 7.94532C14.182 8.39884 14.1715 9.41837 14.0695 9.90353C13.848 10.9301 13.3769 11.7949 12.6386 12.5332C11.9601 13.2152 11.2113 13.6442 10.2797 13.8867C7.94177 14.4949 5.47731 13.3734 4.38395 11.1973C3.38552 9.20743 3.77224 6.81329 5.34724 5.23829C6.11716 4.46837 7.07692 3.97618 8.19138 3.77579C8.55349 3.71251 9.66091 3.7336 10.0195 3.81446Z" fill="black"/>
<path d="M0.203906 8.66601C0.0984375 8.72577 0 8.88398 0 8.99999C0 9.11952 0.0984375 9.27773 0.214453 9.33398C0.302344 9.3832 0.453516 9.39023 1.18125 9.37968L2.04609 9.36913L2.14805 9.25312C2.28867 9.09491 2.28867 8.90507 2.14805 8.74687L2.04609 8.63085L1.1707 8.62382C0.446484 8.61679 0.28125 8.62382 0.203906 8.66601Z" fill="black"/>
<path d="M15.975 8.64843C15.743 8.74335 15.6797 9.05976 15.8519 9.25312L15.9539 9.36913L16.8187 9.37968C17.5465 9.39023 17.6976 9.3832 17.7855 9.33398C17.9016 9.27773 18 9.11952 18 8.99999C18 8.88046 17.9016 8.72577 17.7891 8.66601C17.7047 8.62382 17.5359 8.61327 16.868 8.61679C16.418 8.61679 16.0137 8.63085 15.975 8.64843Z" fill="black"/>
<path d="M3.77929 13.7144C3.6703 13.7742 2.63671 14.8078 2.58046 14.9133C2.49608 15.075 2.51718 15.2156 2.65077 15.3492C2.77733 15.4758 2.92147 15.5039 3.06913 15.4301C3.17811 15.3738 4.21522 14.3437 4.27499 14.2312C4.35936 14.0695 4.33827 13.9289 4.20468 13.7953C4.07811 13.6687 3.91991 13.6406 3.77929 13.7144Z" fill="black"/>
<path d="M13.7953 13.7953C13.6617 13.9289 13.6406 14.0695 13.725 14.2312C13.7848 14.3437 14.8219 15.3738 14.9308 15.4301C15.0785 15.5039 15.2226 15.4758 15.3492 15.3492C15.4828 15.2156 15.5039 15.075 15.4195 14.9133C15.3598 14.8008 14.3226 13.7707 14.2137 13.7144C14.066 13.6406 13.9219 13.6687 13.7953 13.7953Z" fill="black"/>
<path d="M8.74686 15.852L8.63084 15.9539L8.6203 16.8188C8.60975 17.7715 8.6203 17.8418 8.8242 17.9473C8.95428 18.0141 9.04569 18.0141 9.17577 17.9473C9.37967 17.8418 9.39022 17.7715 9.37967 16.8188L9.36912 15.9539L9.25311 15.852C9.16873 15.7746 9.10545 15.75 8.99998 15.75C8.89452 15.75 8.83123 15.7746 8.74686 15.852Z" fill="black"/>
</g>
<defs>
<clipPath id="clip0_23_2">
<rect width="18" height="18" fill="white"/>
</clipPath>
</defs>
</svg>
